<svg xmlns="http://www.w3.org/2000/svg" viewBox="0 0 512 512">
<defs>
  <linearGradient id="g" x1="0" y1="0" x2="1" y2="1">
    <stop offset="0%" stop-color="#b9d95a"/>
    <stop offset="100%" stop-color="#3d5c14"/>
  </linearGradient>
</defs>
<rect width="512" height="512" fill="#000"/>
<g fill="none" stroke="url(#g)" stroke-width="22" stroke-linecap="round">
  <path d="M256 460 C 256 380, 240 320, 256 260"/>
  <path d="M256 400 C 210 380, 180 400, 150 440"/>
  <path d="M256 360 C 305 345, 335 365, 360 400"/>
</g>
<g fill="url(#g)">
  <path d="M256 90
    C 190 130, 165 210, 195 270
    C 215 310, 297 310, 317 270
    C 347 210, 322 130, 256 90 Z"/>
</g>
<g stroke="#000" stroke-width="8" fill="none">
  <path d="M256 100 L 256 260"/>
  <path d="M212 130 C 200 180, 205 230, 225 260"/>
  <path d="M300 130 C 312 180, 307 230, 287 260"/>
</g>
<g fill="url(#g)">
  <path d="M256 60 C 244 75, 244 92, 256 100 C 268 92, 268 75, 256 60 Z"/>
  <circle cx="200" cy="80" r="16"/>
  <circle cx="312" cy="80" r="16"/>
</g>
</svg>
