<svg xmlns="http://www.w3.org/2000/svg" viewBox="0 0 512 512">
<defs>
  <linearGradient id="g" x1="0" y1="0" x2="1" y2="1">
    <stop offset="0%" stop-color="#ff6a5c"/>
    <stop offset="100%" stop-color="#5c0f0f"/>
  </linearGradient>
</defs>
<rect width="512" height="512" fill="#000"/>
<g fill="url(#g)">
  <path d="M 90 300 L 250 270 L 250 460 L 90 490 Z"/>
  <path d="M 422 300 L 262 270 L 262 460 L 422 490 Z"/>
  <path d="M 250 270 L 262 270 L 262 460 L 250 460 Z"/>
</g>
<g fill="url(#g)">
  <rect x="222" y="190" width="68" height="90" rx="14"/>
  <rect x="196" y="110" width="120" height="100" rx="24"/>
  <circle cx="216" cy="112" r="20"/>
  <circle cx="256" cy="102" r="22"/>
  <circle cx="296" cy="112" r="20"/>
  <path d="M 196 155 C 170 150, 160 175, 178 195 C 192 208, 205 200, 205 185 Z"/>
</g>
</svg>
