<svg xmlns="http://www.w3.org/2000/svg" viewBox="0 0 512 512">
<defs>
  <linearGradient id="g" x1="0" y1="0" x2="1" y2="1">
    <stop offset="0%" stop-color="#ffe58a"/>
    <stop offset="100%" stop-color="#8a6210"/>
  </linearGradient>
</defs>
<rect width="512" height="512" fill="#000"/>
<g fill="url(#g)" stroke="#000" stroke-width="8">
  <path d="M 120 240 L 392 240 L 392 430 L 120 430 Z"/>
  <path d="M 120 240 L 256 150 L 392 240 Z"/>
  <rect x="150" y="270" width="212" height="130" fill="#000" stroke="none"/>
</g>
<g fill="url(#g)">
  <rect x="150" y="270" width="212" height="20"/>
  <rect x="150" y="380" width="212" height="20"/>
  <circle cx="150" cy="300" r="10"/>
  <circle cx="150" cy="340" r="10"/>
  <circle cx="150" cy="370" r="10"/>
  <circle cx="362" cy="300" r="10"/>
  <circle cx="362" cy="340" r="10"/>
  <circle cx="362" cy="370" r="10"/>
  <rect x="235" y="70" width="42" height="140" rx="8"/>
  <rect x="186" y="118" width="140" height="42" rx="8"/>
</g>
</svg>
