<svg xmlns="http://www.w3.org/2000/svg" viewBox="0 0 512 512">
<defs>
  <linearGradient id="g" x1="0" y1="0" x2="1" y2="1">
    <stop offset="0%" stop-color="#ff7ab0"/>
    <stop offset="100%" stop-color="#7a0f3a"/>
  </linearGradient>
</defs>
<rect width="512" height="512" fill="#000"/>
<g fill="url(#g)">
  <path d="M 90 300 L 250 270 L 250 440 L 90 470 Z"/>
  <path d="M 422 300 L 262 270 L 262 440 L 422 470 Z"/>
  <path d="M 250 270 L 262 270 L 262 440 L 250 440 Z"/>
</g>
<g fill="url(#g)">
  <path d="M256 260
    C 220 220, 232 170, 262 150
    C 250 175, 262 190, 280 178
    C 300 165, 296 140, 280 120
    C 320 135, 340 180, 322 220
    C 340 205, 350 220, 340 245
    C 320 275, 280 285, 256 260 Z"/>
</g>
</svg>
