<svg xmlns="http://www.w3.org/2000/svg" viewBox="0 0 512 512" style="height: 512px; width: 512px;"><defs><filter id="shadow-1" height="300%" width="300%" x="-100%" y="-100%"><feFlood flood-color="rgba(255, 255, 255, 1)" result="flood"></feFlood><feComposite in="flood" in2="SourceGraphic" operator="atop" result="composite"></feComposite><feGaussianBlur in="composite" stdDeviation="15" result="blur"></feGaussianBlur><feOffset dx="0" dy="0" result="offset"></feOffset><feComposite in="SourceGraphic" in2="offset" operator="over"></feComposite></filter><linearGradient id="delapouite-i-beam-gradient-1"><stop offset="0%" stop-color="#9b9b9b" stop-opacity="1"></stop><stop offset="100%" stop-color="#4a4a4a" stop-opacity="1"></stop></linearGradient></defs><g class="" transform="translate(0,0)" style=""><path d="M39.557 19L323.44 273h149.003L188.56 19H39.558zM25 30.13v25.847L311 311.87V286.024L25 30.13zm64 107.263v34.584L375 427.87v-84.843l-64-13.002L89 137.393zM77.555 185.89l-42.9 10.723 287.79 257.498 42.9-10.723L77.556 185.89zM25 212.13v23.847L311 491.87v-23.847L25 212.13zM329 291v21.973l64 16v126.054l-64 16V493h158v-21.973l-64-16V328.973l64-16V291H329zm112 135.865v14.108l21.88 5.47L441 426.865z" fill="url(#delapouite-i-beam-gradient-1)" stroke="#000000" stroke-opacity="1" stroke-width="17" filter="url(#shadow-1)"></path></g></svg>