<svg xmlns="http://www.w3.org/2000/svg" viewBox="0 0 512 512" style="height: 512px; width: 512px;"><defs><filter id="shadow-1" height="300%" width="300%" x="-100%" y="-100%"><feFlood flood-color="rgba(255, 255, 255, 1)" result="flood"></feFlood><feComposite in="flood" in2="SourceGraphic" operator="atop" result="composite"></feComposite><feGaussianBlur in="composite" stdDeviation="15" result="blur"></feGaussianBlur><feOffset dx="0" dy="0" result="offset"></feOffset><feComposite in="SourceGraphic" in2="offset" operator="over"></feComposite></filter><filter id="shadow-2" height="300%" width="300%" x="-100%" y="-100%"><feFlood flood-color="rgba(255, 255, 255, 1)" result="flood"></feFlood><feComposite in="flood" in2="SourceGraphic" operator="atop" result="composite"></feComposite><feGaussianBlur in="composite" stdDeviation="15" result="blur"></feGaussianBlur><feOffset dx="0" dy="0" result="offset"></feOffset><feComposite in="SourceGraphic" in2="offset" operator="over"></feComposite></filter><filter id="shadow-3" height="300%" width="300%" x="-100%" y="-100%"><feFlood flood-color="rgba(255, 255, 255, 1)" result="flood"></feFlood><feComposite in="flood" in2="SourceGraphic" operator="atop" result="composite"></feComposite><feGaussianBlur in="composite" stdDeviation="15" result="blur"></feGaussianBlur><feOffset dx="0" dy="0" result="offset"></feOffset><feComposite in="SourceGraphic" in2="offset" operator="over"></feComposite></filter><filter id="shadow-4" height="300%" width="300%" x="-100%" y="-100%"><feFlood flood-color="rgba(255, 255, 255, 1)" result="flood"></feFlood><feComposite in="flood" in2="SourceGraphic" operator="atop" result="composite"></feComposite><feGaussianBlur in="composite" stdDeviation="15" result="blur"></feGaussianBlur><feOffset dx="0" dy="0" result="offset"></feOffset><feComposite in="SourceGraphic" in2="offset" operator="over"></feComposite></filter><filter id="shadow-5" height="300%" width="300%" x="-100%" y="-100%"><feFlood flood-color="rgba(255, 255, 255, 1)" result="flood"></feFlood><feComposite in="flood" in2="SourceGraphic" operator="atop" result="composite"></feComposite><feGaussianBlur in="composite" stdDeviation="15" result="blur"></feGaussianBlur><feOffset dx="0" dy="0" result="offset"></feOffset><feComposite in="SourceGraphic" in2="offset" operator="over"></feComposite></filter><filter id="shadow-6" height="300%" width="300%" x="-100%" y="-100%"><feFlood flood-color="rgba(255, 255, 255, 1)" result="flood"></feFlood><feComposite in="flood" in2="SourceGraphic" operator="atop" result="composite"></feComposite><feGaussianBlur in="composite" stdDeviation="15" result="blur"></feGaussianBlur><feOffset dx="0" dy="0" result="offset"></feOffset><feComposite in="SourceGraphic" in2="offset" operator="over"></feComposite></filter><filter id="shadow-7" height="300%" width="300%" x="-100%" y="-100%"><feFlood flood-color="rgba(255, 255, 255, 1)" result="flood"></feFlood><feComposite in="flood" in2="SourceGraphic" operator="atop" result="composite"></feComposite><feGaussianBlur in="composite" stdDeviation="15" result="blur"></feGaussianBlur><feOffset dx="0" dy="0" result="offset"></feOffset><feComposite in="SourceGraphic" in2="offset" operator="over"></feComposite></filter><filter id="shadow-8" height="300%" width="300%" x="-100%" y="-100%"><feFlood flood-color="rgba(255, 255, 255, 1)" result="flood"></feFlood><feComposite in="flood" in2="SourceGraphic" operator="atop" result="composite"></feComposite><feGaussianBlur in="composite" stdDeviation="15" result="blur"></feGaussianBlur><feOffset dx="0" dy="0" result="offset"></feOffset><feComposite in="SourceGraphic" in2="offset" operator="over"></feComposite></filter><filter id="shadow-9" height="300%" width="300%" x="-100%" y="-100%"><feFlood flood-color="rgba(255, 255, 255, 1)" result="flood"></feFlood><feComposite in="flood" in2="SourceGraphic" operator="atop" result="composite"></feComposite><feGaussianBlur in="composite" stdDeviation="15" result="blur"></feGaussianBlur><feOffset dx="0" dy="0" result="offset"></feOffset><feComposite in="SourceGraphic" in2="offset" operator="over"></feComposite></filter><linearGradient id="delapouite-chimney-gradient-1"><stop offset="0%" stop-color="#8b572a" stop-opacity="1"></stop><stop offset="100%" stop-color="#c9c9c9" stop-opacity="1"></stop></linearGradient><linearGradient id="delapouite-chimney-gradient-2"><stop offset="0%" stop-color="#8b572a" stop-opacity="1"></stop><stop offset="100%" stop-color="#c9c9c9" stop-opacity="1"></stop></linearGradient><linearGradient id="delapouite-chimney-gradient-3"><stop offset="0%" stop-color="#f5a623" stop-opacity="1"></stop><stop offset="100%" stop-color="#f5a623" stop-opacity="1"></stop></linearGradient><linearGradient id="delapouite-chimney-gradient-4"><stop offset="0%" stop-color="#f5a623" stop-opacity="1"></stop><stop offset="100%" stop-color="#f5a623" stop-opacity="1"></stop></linearGradient><linearGradient id="delapouite-chimney-gradient-5"><stop offset="0%" stop-color="#f5a623" stop-opacity="1"></stop><stop offset="100%" stop-color="#c9c9c9" stop-opacity="1"></stop></linearGradient><linearGradient id="delapouite-chimney-gradient-6"><stop offset="0%" stop-color="#f5a623" stop-opacity="1"></stop><stop offset="100%" stop-color="#c9c9c9" stop-opacity="1"></stop></linearGradient><linearGradient id="delapouite-chimney-gradient-7"><stop offset="0%" stop-color="#f5a623" stop-opacity="1"></stop><stop offset="100%" stop-color="#c9c9c9" stop-opacity="1"></stop></linearGradient><linearGradient id="delapouite-chimney-gradient-8"><stop offset="0%" stop-color="#f5a623" stop-opacity="1"></stop><stop offset="100%" stop-color="#c9c9c9" stop-opacity="1"></stop></linearGradient><linearGradient id="delapouite-chimney-gradient-9"><stop offset="0%" stop-color="#f5a623" stop-opacity="1"></stop><stop offset="100%" stop-color="#c9c9c9" stop-opacity="1"></stop></linearGradient></defs><g class="" transform="translate(18,-2)" style=""><g><path d="M130.9 176.8C110 196.4 96.25 202.6 70.88 201.7C61.24 218.6 61.71 229.8 66.57 240.3C69.5 246.7 74.65 252.9 81.14 259.1L309.6 259.1C323.1 253.7 331.2 241.4 333.9 229.6C315.4 232.4 298.9 231 284.9 225C270.2 218.7 258.7 207.3 250.6 192.5C226 193 200.6 172.4 189.8 154.2C243.1 184.2 289.9 169.5 321.2 160.4C302.9 178.7 292.1 184.2 270 189.7C275.9 198.5 283.1 204.6 292 208.4C303.6 213.4 318.4 214.6 337.3 210.7L337.4 210.4L337.8 210.6C370.2 229.6 411.6 232.7 438.7 217.9C465.2 202.8 483.4 187.5 494 172.7L494 75.77C471.4 89.81 445.1 97.58 420.9 94.76C391.7 114.9 353.6 125.2 317.1 125.8C279.8 126.4 243.3 108.7 217.6 86.78C251.4 100.6 282.8 108.4 316.8 107.8C344.2 107.4 373 100.6 396.6 88.41C382 82.58 363.2 75.01 340.5 56.09C407.8 75.96 446.8 87.41 494 54.04C495.2 44.34 493.3 32.02 492.2 22.87L18 23.19L18 89.94C32.13 106 102.3 107.6 144.5 98.57C109.7 113 59.91 122.1 29.79 112.9C9.604 120.9 18.37 143 25.71 156.4C41.5 185.2 98.6 194.9 130.9 176.8Z" class="" fill="url(#delapouite-chimney-gradient-2)" stroke="#000000" stroke-opacity="1" stroke-width="8" filter="url(#shadow-2)"></path><path d="M73 277.1L73 339.1L311 339.1L311 277.1Z" class="" fill="url(#delapouite-chimney-gradient-3)" stroke="#000000" stroke-opacity="1" stroke-width="8" filter="url(#shadow-3)"></path><path d="M121 357.1L121 387.1L151 387.1L151 357.1Z" class="" fill="url(#delapouite-chimney-gradient-4)" stroke="#000000" stroke-opacity="1" stroke-width="8" filter="url(#shadow-4)"></path><path d="M169 357.1L169 387.1L263 387.1L263 357.1Z" class="" fill="url(#delapouite-chimney-gradient-5)" stroke="#000000" stroke-opacity="1" stroke-width="8" filter="url(#shadow-5)"></path><path d="M121 405.1L121 435.1L199 435.1L199 405.1Z" class="" fill="url(#delapouite-chimney-gradient-6)" stroke="#000000" stroke-opacity="1" stroke-width="8" filter="url(#shadow-6)"></path><path d="M217 405.1L217 435.1L263 435.1L263 405.1Z" class="" fill="url(#delapouite-chimney-gradient-7)" stroke="#000000" stroke-opacity="1" stroke-width="8" filter="url(#shadow-7)"></path><path d="M121 453.1L121 483.1L151 483.1L151 453.1Z" class="" fill="url(#delapouite-chimney-gradient-8)" stroke="#000000" stroke-opacity="1" stroke-width="8" filter="url(#shadow-8)"></path><path d="M169 453.1L169 483.1L263 483.1L263 453.1Z" class="selected" fill="url(#delapouite-chimney-gradient-9)" stroke="#000000" stroke-opacity="1" stroke-width="8" filter="url(#shadow-9)"></path></g></g></svg>