<svg xmlns="http://www.w3.org/2000/svg" viewBox="0 0 512 512" style="height: 512px; width: 512px;"><defs><filter id="shadow-1" height="300%" width="300%" x="-100%" y="-100%"><feFlood flood-color="rgba(255, 255, 255, 1)" result="flood"></feFlood><feComposite in="flood" in2="SourceGraphic" operator="atop" result="composite"></feComposite><feGaussianBlur in="composite" stdDeviation="15" result="blur"></feGaussianBlur><feOffset dx="0" dy="0" result="offset"></feOffset><feComposite in="SourceGraphic" in2="offset" operator="over"></feComposite></filter><filter id="shadow-2" height="300%" width="300%" x="-100%" y="-100%"><feFlood flood-color="rgba(255, 255, 255, 1)" result="flood"></feFlood><feComposite in="flood" in2="SourceGraphic" operator="atop" result="composite"></feComposite><feGaussianBlur in="composite" stdDeviation="15" result="blur"></feGaussianBlur><feOffset dx="0" dy="0" result="offset"></feOffset><feComposite in="SourceGraphic" in2="offset" operator="over"></feComposite></filter><filter id="shadow-3" height="300%" width="300%" x="-100%" y="-100%"><feFlood flood-color="rgba(255, 255, 255, 1)" result="flood"></feFlood><feComposite in="flood" in2="SourceGraphic" operator="atop" result="composite"></feComposite><feGaussianBlur in="composite" stdDeviation="15" result="blur"></feGaussianBlur><feOffset dx="0" dy="0" result="offset"></feOffset><feComposite in="SourceGraphic" in2="offset" operator="over"></feComposite></filter><filter id="shadow-4" height="300%" width="300%" x="-100%" y="-100%"><feFlood flood-color="rgba(255, 255, 255, 1)" result="flood"></feFlood><feComposite in="flood" in2="SourceGraphic" operator="atop" result="composite"></feComposite><feGaussianBlur in="composite" stdDeviation="15" result="blur"></feGaussianBlur><feOffset dx="0" dy="0" result="offset"></feOffset><feComposite in="SourceGraphic" in2="offset" operator="over"></feComposite></filter><filter id="shadow-5" height="300%" width="300%" x="-100%" y="-100%"><feFlood flood-color="rgba(255, 255, 255, 1)" result="flood"></feFlood><feComposite in="flood" in2="SourceGraphic" operator="atop" result="composite"></feComposite><feGaussianBlur in="composite" stdDeviation="15" result="blur"></feGaussianBlur><feOffset dx="0" dy="0" result="offset"></feOffset><feComposite in="SourceGraphic" in2="offset" operator="over"></feComposite></filter><filter id="shadow-6" height="300%" width="300%" x="-100%" y="-100%"><feFlood flood-color="rgba(255, 255, 255, 1)" result="flood"></feFlood><feComposite in="flood" in2="SourceGraphic" operator="atop" result="composite"></feComposite><feGaussianBlur in="composite" stdDeviation="15" result="blur"></feGaussianBlur><feOffset dx="0" dy="0" result="offset"></feOffset><feComposite in="SourceGraphic" in2="offset" operator="over"></feComposite></filter><filter id="shadow-7" height="300%" width="300%" x="-100%" y="-100%"><feFlood flood-color="rgba(255, 255, 255, 1)" result="flood"></feFlood><feComposite in="flood" in2="SourceGraphic" operator="atop" result="composite"></feComposite><feGaussianBlur in="composite" stdDeviation="15" result="blur"></feGaussianBlur><feOffset dx="0" dy="0" result="offset"></feOffset><feComposite in="SourceGraphic" in2="offset" operator="over"></feComposite></filter><filter id="shadow-8" height="300%" width="300%" x="-100%" y="-100%"><feFlood flood-color="rgba(255, 255, 255, 1)" result="flood"></feFlood><feComposite in="flood" in2="SourceGraphic" operator="atop" result="composite"></feComposite><feGaussianBlur in="composite" stdDeviation="15" result="blur"></feGaussianBlur><feOffset dx="0" dy="0" result="offset"></feOffset><feComposite in="SourceGraphic" in2="offset" operator="over"></feComposite></filter><filter id="shadow-9" height="300%" width="300%" x="-100%" y="-100%"><feFlood flood-color="rgba(255, 255, 255, 1)" result="flood"></feFlood><feComposite in="flood" in2="SourceGraphic" operator="atop" result="composite"></feComposite><feGaussianBlur in="composite" stdDeviation="15" result="blur"></feGaussianBlur><feOffset dx="0" dy="0" result="offset"></feOffset><feComposite in="SourceGraphic" in2="offset" operator="over"></feComposite></filter><linearGradient id="lorc-top-hat-gradient-1"><stop offset="0%" stop-color="#8b572a" stop-opacity="1"></stop><stop offset="100%" stop-color="#c9c9c9" stop-opacity="1"></stop></linearGradient><linearGradient id="lorc-top-hat-gradient-2"><stop offset="0%" stop-color="#4a4a4a" stop-opacity="1"></stop><stop offset="100%" stop-color="#9b9b9b" stop-opacity="1"></stop></linearGradient><linearGradient id="lorc-top-hat-gradient-3"><stop offset="0%" stop-color="#4a4a4a" stop-opacity="1"></stop><stop offset="100%" stop-color="#c9c9c9" stop-opacity="1"></stop></linearGradient><linearGradient id="lorc-top-hat-gradient-4"><stop offset="0%" stop-color="#4a4a4a" stop-opacity="1"></stop><stop offset="100%" stop-color="#c9c9c9" stop-opacity="1"></stop></linearGradient><linearGradient id="lorc-top-hat-gradient-5"><stop offset="0%" stop-color="#7ed321" stop-opacity="1"></stop><stop offset="100%" stop-color="#417505" stop-opacity="1"></stop></linearGradient><linearGradient id="lorc-top-hat-gradient-6"><stop offset="0%" stop-color="#f5a623" stop-opacity="1"></stop><stop offset="100%" stop-color="#c9c9c9" stop-opacity="1"></stop></linearGradient><linearGradient id="lorc-top-hat-gradient-7"><stop offset="0%" stop-color="#f5a623" stop-opacity="1"></stop><stop offset="100%" stop-color="#c9c9c9" stop-opacity="1"></stop></linearGradient><linearGradient id="lorc-top-hat-gradient-8"><stop offset="0%" stop-color="#f5a623" stop-opacity="1"></stop><stop offset="100%" stop-color="#c9c9c9" stop-opacity="1"></stop></linearGradient><linearGradient id="lorc-top-hat-gradient-9"><stop offset="0%" stop-color="#f5a623" stop-opacity="1"></stop><stop offset="100%" stop-color="#c9c9c9" stop-opacity="1"></stop></linearGradient></defs><g class="" transform="translate(18,-2)" style=""><g><path d="M203.594 58.188C201.661 58.178 199.77 58.182 197.906 58.218C175.508 58.655 157.974 62.408 146.094 67.906C130.254 75.236 125.107 83.634 126.314 93.531C127.748 105.321 139.779 117.524 163.719 127.063C187.659 136.603 222.052 142.773 262.499 143.876C302.142 144.958 340.705 142.974 366.062 136.251C378.74 132.889 387.877 128.201 392.124 123.751C396.371 119.301 397.397 116.145 394.594 108.531C392.456 102.731 385.541 95.988 373.968 89.971C362.393 83.951 346.748 78.738 329.404 74.501C294.729 66.031 253.264 61.346 221.904 58.938L221.874 58.938C215.496 58.456 209.389 58.218 203.592 58.188Z" class="" fill="url(#lorc-top-hat-gradient-2)" stroke="#000000" stroke-opacity="1" stroke-width="8" filter="url(#shadow-2)"></path><path d="M131.281 130.906C136.957 172.189 141.593 214.803 137.221 259.936C137.285 266.221 139.737 271.142 145.031 276.281C150.904 281.981 160.531 287.277 172.751 291.439C197.191 299.762 231.615 303.579 265.689 303.189C299.762 302.799 333.685 298.247 357.095 290.969C368.799 287.331 377.845 282.879 382.565 278.939C385.218 276.722 386.45 275.359 386.875 274.126C379.919 232.87 382.767 190.514 389.282 147.906C383.756 150.472 377.576 152.536 370.877 154.313C341.997 161.971 302.55 163.67 262.002 162.563C219.967 161.416 183.825 155.171 156.814 144.407C147.199 140.577 138.55 136.09 131.284 130.907Z" class="" fill="url(#lorc-top-hat-gradient-3)" stroke="#000000" stroke-opacity="1" stroke-width="8" filter="url(#shadow-3)"></path><path d="M117.657 266.78C107.274 269.98 97.549 273.532 88.595 277.438C46.377 295.853 22.445 320.953 20.657 346.25C19.573 361.573 24.457 374.43 35.001 386.375C45.544 398.319 62.055 408.967 83.407 417.469C126.113 434.472 187.715 442.795 256.377 440.499C323.504 438.255 384.209 429.999 427.095 415.219C448.538 407.827 465.455 398.761 476.47 388.719C487.484 378.674 492.72 368.257 492.72 355.779C492.72 343.303 487.17 330.903 475.875 318.624C464.579 306.344 447.6 294.574 426.187 284.468C419.897 281.498 413.227 278.663 406.219 275.998C408.307 287.048 411.124 297.953 414.874 308.686C419.256 321.226 415.684 334.336 407.436 343.716C399.188 353.099 387.03 359.999 372.406 365.654C343.156 376.964 303.416 383.012 263.436 383.874C223.458 384.734 183.496 380.424 153.718 369.498C138.828 364.035 126.304 356.96 117.811 346.935C109.317 336.911 105.681 323.245 109.404 309.342C113.271 294.902 115.926 280.739 117.654 266.779Z" class="selected" fill="url(#lorc-top-hat-gradient-4)" stroke="#000000" stroke-opacity="1" stroke-width="8" filter="url(#shadow-4)"></path><path d="M132.877 290.47C131.392 298.293 129.609 306.197 127.47 314.187C125.14 322.889 126.77 328.599 132.063 334.844C137.353 341.089 147.115 347.184 160.156 351.969C186.239 361.539 224.716 366.012 263.031 365.186C301.346 364.361 339.747 358.249 365.689 348.218C378.659 343.201 388.372 337.132 393.407 331.404C398.443 325.676 399.589 321.534 397.251 314.842C395.028 308.479 393.101 302.082 391.438 295.654C383.828 301.106 374.068 305.254 362.626 308.81C336.512 316.928 301.466 321.467 265.906 321.873C230.349 322.279 194.488 318.611 166.72 309.153C153.264 304.573 141.628 298.637 132.875 290.467Z" class="" fill="url(#lorc-top-hat-gradient-5)" stroke="#000000" stroke-opacity="1" stroke-width="8" filter="url(#shadow-5)"></path></g></g></svg>