<svg xmlns="http://www.w3.org/2000/svg" viewBox="0 0 512 512">
<defs>
  <linearGradient id="g" x1="0" y1="0" x2="1" y2="1">
    <stop offset="0%" stop-color="#ff6a4d"/>
    <stop offset="100%" stop-color="#5c0000"/>
  </linearGradient>
</defs>
<rect width="512" height="512" fill="#000"/>
<g fill="url(#g)">
  <path d="M256 60
           C 350 60, 410 130, 410 230
           C 410 300, 385 345, 350 385
           C 380 400, 400 420, 412 448
           L 350 430
           C 320 452, 288 462, 256 462
           C 224 462, 192 452, 162 430
           L 100 448
           C 112 420, 132 400, 162 385
           C 127 345, 102 300, 102 230
           C 102 130, 162 60, 256 60 Z"/>
</g>
<g fill="#000">
  <path d="M150 210 L 225 190 L 225 220 L 165 250 Z"/>
  <path d="M362 210 L 287 190 L 287 220 L 347 250 Z"/>
  <path d="M180 340 C 210 300, 302 300, 332 340 C 320 400, 260 430, 256 430 C 252 430, 192 400, 180 340 Z"/>
</g>
<g fill="url(#g)">
  <path d="M256 60 L 232 10 L 256 40 L 280 10 Z"/>
  <path d="M60 150 L10 120 L 55 165 Z"/>
  <path d="M452 150 L502 120 L 457 165 Z"/>
  <path d="M40 320 L0 330 L 48 350 Z"/>
  <path d="M472 320 L512 330 L 464 350 Z"/>
</g>
</svg>
