<svg xmlns="http://www.w3.org/2000/svg" viewBox="0 0 512 512">
<defs>
  <linearGradient id="g" x1="0" y1="0" x2="1" y2="1">
    <stop offset="0%" stop-color="#e8362c"/>
    <stop offset="100%" stop-color="#3d0505"/>
  </linearGradient>
</defs>
<rect width="512" height="512" fill="#000"/>
<g fill="url(#g)">
  <path d="M20 300
    C 80 220, 130 220, 170 270
    C 210 320, 250 320, 290 260
    C 330 200, 380 200, 420 260
    C 445 296, 470 300, 492 285
    L 492 460 L 20 460 Z"/>
  <path d="M60 250 C 90 210, 120 210, 150 245 C 130 260, 100 260, 60 250 Z"/>
</g>
<g fill="url(#g)">
  <circle cx="360" cy="120" r="18"/>
  <circle cx="400" cy="90" r="12"/>
  <path d="M360 100 C 372 108, 378 122, 360 140 C 342 122, 348 108, 360 100 Z"/>
</g>
</svg>
