<svg xmlns="http://www.w3.org/2000/svg" viewBox="0 0 512 512">
<defs>
  <linearGradient id="g" x1="0" y1="0" x2="1" y2="1">
    <stop offset="0%" stop-color="#d99a5c"/>
    <stop offset="100%" stop-color="#3a2410"/>
  </linearGradient>
</defs>
<rect width="512" height="512" fill="#000"/>
<g fill="url(#g)" transform="translate(256,256)">
  <path d="M -20 -170 L 20 -170 L 28 -120 L 70 -105 L 105 -140 L 140 -105 L 105 -70 L 120 -28 L 170 -20 L 170 20
           L 120 28 L 105 70 L 140 105 L 105 140 L 70 105 L 28 120 L 20 170 L -20 170
           L -28 120 L -70 105 L -105 140 L -140 105 L -105 70 L -120 28 L -170 20 L -170 -20
           L -120 -28 L -105 -70 L -140 -105 L -105 -140 L -70 -105 L -28 -120 Z"/>
</g>
<circle cx="256" cy="256" r="55" fill="#000"/>
<g fill="#000">
  <path d="M256 256 L 460 190 L 500 230 L 320 300 Z"/>
  <path d="M256 256 L 60 330 L 20 290 L 200 220 Z"/>
</g>
<g fill="url(#g)" stroke="#000" stroke-width="6">
  <path d="M320 195 L 470 150 L 500 185 L 350 235 Z"/>
</g>
</svg>
