<svg xmlns="http://www.w3.org/2000/svg" viewBox="0 0 512 512">
<defs>
  <linearGradient id="g" x1="0" y1="0" x2="1" y2="1">
    <stop offset="0%" stop-color="#ffe58a"/>
    <stop offset="100%" stop-color="#7a5000"/>
  </linearGradient>
</defs>
<rect width="512" height="512" fill="#000"/>
<g fill="url(#g)">
  <path d="M170 130
    C 170 220, 200 280, 256 300
    C 312 280, 342 220, 342 130 Z"/>
  <rect x="236" y="298" width="40" height="90" rx="8"/>
  <path d="M180 388 L 332 388 L 352 430 L 160 430 Z"/>
  <path d="M160 430 L 352 430 L 352 452 L 160 452 Z"/>
</g>
<g fill="url(#g)">
  <path d="M180 128 C 210 108, 302 108, 332 128 C 320 150, 250 168, 180 128 Z"/>
  <circle cx="160" cy="112" r="20"/>
  <circle cx="352" cy="112" r="16"/>
  <circle cx="256" cy="90" r="18"/>
  <path d="M200 92 C 212 100, 218 114, 202 128 C 186 114, 190 100, 200 92 Z"/>
</g>
</svg>
