<svg xmlns="http://www.w3.org/2000/svg" viewBox="0 0 512 512">
<defs>
  <linearGradient id="g" x1="0" y1="0" x2="1" y2="1">
    <stop offset="0%" stop-color="#e8c877"/>
    <stop offset="100%" stop-color="#5c3d10"/>
  </linearGradient>
</defs>
<rect width="512" height="512" fill="#000"/>
<g fill="none" stroke="url(#g)" stroke-width="46" stroke-linecap="round">
  <!-- torso, falling backward -->
  <path d="M 340 200 L 235 320"/>
  <!-- rear leg kicked up -->
  <path d="M 235 320 L 130 260"/>
  <path d="M 130 260 L 60 300"/>
  <!-- front leg -->
  <path d="M 235 320 L 300 420"/>
  <path d="M 300 420 L 280 470"/>
  <!-- flailing arm up -->
  <path d="M 340 200 L 420 130"/>
  <path d="M 420 130 L 470 165"/>
  <!-- other arm out -->
  <path d="M 340 200 L 400 260"/>
  <path d="M 400 260 L 380 320"/>
</g>
<circle cx="365" cy="165" r="40" fill="url(#g)"/>
<g fill="none" stroke="url(#g)" stroke-width="16" stroke-linecap="round">
  <path d="M 40 380 C 90 360, 130 360, 170 380"/>
  <path d="M 20 420 C 80 395, 140 395, 190 420"/>
</g>
</svg>
