<svg xmlns="http://www.w3.org/2000/svg" viewBox="0 0 512 512">
<defs>
  <linearGradient id="g" x1="0" y1="0" x2="1" y2="1">
    <stop offset="0%" stop-color="#ffcf5c"/>
    <stop offset="100%" stop-color="#a3220a"/>
  </linearGradient>
</defs>
<rect width="512" height="512" fill="#000"/>
<g fill="url(#g)">
  <path d="M256 256
    L 280 130 L 300 175 L 340 70 L 335 150 L 400 90 L 360 175 L 452 150 L 372 210
    L 460 256 L 372 300 L 452 362 L 360 335 L 400 420 L 335 360 L 340 440 L 300 335
    L 280 380 L 256 256
    L 232 380 L 212 335 L 172 440 L 177 360 L 112 420 L 152 335 L 60 362 L 140 300
    L 52 256 L 140 210 L 60 150 L 152 175 L 112 90 L 177 150 L 172 70 L 212 175 L 232 130 Z"/>
</g>
<circle cx="256" cy="256" r="90" fill="url(#g)"/>
<circle cx="256" cy="256" r="90" fill="none" stroke="#000" stroke-width="10"/>
</svg>
