<svg xmlns="http://www.w3.org/2000/svg" viewBox="0 0 512 512">
<defs>
  <linearGradient id="g" x1="0" y1="0" x2="1" y2="1">
    <stop offset="0%" stop-color="#c07eff"/>
    <stop offset="100%" stop-color="#33115c"/>
  </linearGradient>
</defs>
<rect width="512" height="512" fill="#000"/>
<g fill="url(#g)">
  <path d="M256 40 L 300 110 L 212 110 Z"/>
  <path d="M180 110 L 332 110 L 360 210 L 268 190 L 268 240 L 244 240 L 244 190 L 152 210 Z"/>
  <path d="M180 210 L 332 210 L 372 400 L 140 400 Z"/>
  <circle cx="200" cy="150" r="18"/>
  <circle cx="312" cy="150" r="18"/>
</g>
<g fill="url(#g)">
  <path d="M256 400
           C 220 400, 190 415, 178 440
           C 170 458, 168 468, 168 480
           L 344 480
           C 344 468, 342 458, 334 440
           C 322 415, 292 400, 256 400 Z"/>
  <circle cx="256" cy="392" r="26"/>
</g>
</svg>
