<svg xmlns="http://www.w3.org/2000/svg" viewBox="0 0 512 512">
<defs>
  <linearGradient id="g" x1="0" y1="0" x2="1" y2="1">
    <stop offset="0%" stop-color="#d9f24a"/>
    <stop offset="100%" stop-color="#465600"/>
  </linearGradient>
</defs>
<rect width="512" height="512" fill="#000"/>
<g fill="url(#g)">
  <path d="M256 170 C 340 170, 400 220, 430 256 C 400 292, 340 342, 256 342 C 172 342, 112 292, 82 256 C 112 220, 172 170, 256 170 Z"/>
</g>
<circle cx="256" cy="256" r="46" fill="#000"/>
<circle cx="256" cy="256" r="26" fill="url(#g)"/>
<g fill="url(#g)">
  <path d="M110 70 C 150 70, 182 92, 198 112 C 182 132, 150 154, 110 154 C 70 154, 38 132, 22 112 C 38 92, 70 70, 110 70 Z"/>
</g>
<circle cx="110" cy="112" r="22" fill="#000"/>
<circle cx="110" cy="112" r="12" fill="url(#g)"/>
<g fill="url(#g)">
  <path d="M402 70 C 442 70, 474 92, 490 112 C 474 132, 442 154, 402 154 C 362 154, 330 132, 314 112 C 330 92, 362 70, 402 70 Z"/>
</g>
<circle cx="402" cy="112" r="22" fill="#000"/>
<circle cx="402" cy="112" r="12" fill="url(#g)"/>
<g fill="url(#g)">
  <path d="M110 358 C 150 358, 182 380, 198 400 C 182 420, 150 442, 110 442 C 70 442, 38 420, 22 400 C 38 380, 70 358, 110 358 Z"/>
</g>
<circle cx="110" cy="400" r="22" fill="#000"/>
<circle cx="110" cy="400" r="12" fill="url(#g)"/>
<g fill="url(#g)">
  <path d="M402 358 C 442 358, 474 380, 490 400 C 474 420, 442 442, 402 442 C 362 442, 330 420, 314 400 C 330 380, 362 358, 402 358 Z"/>
</g>
<circle cx="402" cy="400" r="22" fill="#000"/>
<circle cx="402" cy="400" r="12" fill="url(#g)"/>
</svg>
