<svg xmlns="http://www.w3.org/2000/svg" viewBox="0 0 512 512">
  <defs>
    <linearGradient id="g" x1="0%" y1="0%" x2="100%" y2="100%">
      <stop offset="0%" stop-color="#f2e6c9"/>
      <stop offset="100%" stop-color="#5c4a22"/>
    </linearGradient>
  </defs>
  <rect width="512" height="512" fill="#000"/>
  <g fill="url(#g)" stroke="#000" stroke-width="10">
    <rect x="120" y="86" width="190" height="272" rx="22" transform="rotate(-10 215 222)"/>
    <rect x="202" y="150" width="190" height="272" rx="22" transform="rotate(9 297 286)"/>
  </g>
  <g fill="url(#g)" stroke="#000" stroke-width="8">
    <rect x="40" y="228" width="432" height="70" rx="8" transform="rotate(-32 256 263)"/>
    <rect x="40" y="228" width="432" height="70" rx="8" transform="rotate(32 256 263)"/>
  </g>
  <g stroke="#000" stroke-width="4" opacity="0.5">
    <line x1="60" y1="215" x2="452" y2="215" transform="rotate(-32 256 263)"/>
    <line x1="60" y1="311" x2="452" y2="311" transform="rotate(-32 256 263)"/>
    <line x1="60" y1="215" x2="452" y2="215" transform="rotate(32 256 263)"/>
    <line x1="60" y1="311" x2="452" y2="311" transform="rotate(32 256 263)"/>
  </g>
</svg>
