<svg xmlns="http://www.w3.org/2000/svg" viewBox="0 0 512 512">
  <defs>
    <linearGradient id="g" x1="0%" y1="0%" x2="100%" y2="100%">
      <stop offset="0%" stop-color="#fff6d0"/>
      <stop offset="100%" stop-color="#b30f00"/>
    </linearGradient>
  </defs>
  <rect width="512" height="512" fill="#000"/>
  <g fill="none" stroke="url(#g)" stroke-width="20" stroke-linejoin="round">
    <polygon points="256,110 303.02,235.28 436.7,241.29 332.09,324.72 367.68,453.71 256,380 144.32,453.71 179.91,324.72 75.29,241.29 208.98,235.28"/>
  </g>
  <g fill="url(#g)" transform="translate(256 300) scale(0.62) translate(-256 -300)">
    <path d="M256 40
             C 190 130 168 200 208 260
             C 180 250 168 224 172 196
             C 130 260 140 340 200 380
             C 170 372 150 356 138 330
             C 138 410 190 452 256 452
             C 322 452 374 410 374 330
             C 362 356 342 372 312 380
             C 372 340 382 260 340 196
             C 344 224 332 250 304 260
             C 344 200 322 130 256 40 Z"/>
  </g>
</svg>
