<svg xmlns="http://www.w3.org/2000/svg" viewBox="0 0 512 512">
  <defs>
    <linearGradient id="g" x1="0%" y1="0%" x2="100%" y2="100%">
      <stop offset="0%" stop-color="#ff8ce8"/>
      <stop offset="100%" stop-color="#42005a"/>
    </linearGradient>
  </defs>
  <rect width="512" height="512" fill="#000"/>
  <g fill="url(#g)">
    <path d="M256 256
             L 300 120 L 320 210
             L 420 100 L 372 224
             L 470 220 L 356 276
             L 452 350 L 340 316
             L 380 440 L 288 330
             L 246 460 L 232 320
             L 130 410 L 200 296
             L 60 320 L 176 250
             L 46 176 L 196 218
             L 150 80 L 236 200
             Z"/>
    <circle cx="150" cy="150" r="18"/>
    <circle cx="380" cy="120" r="14"/>
    <circle cx="420" cy="380" r="16"/>
    <ellipse cx="120" cy="420" rx="14" ry="20"/>
  </g>
</svg>
