<svg xmlns="http://www.w3.org/2000/svg" viewBox="0 0 512 512">
  <defs>
    <linearGradient id="g" x1="0%" y1="0%" x2="100%" y2="100%">
      <stop offset="0%" stop-color="#e6ebee"/>
      <stop offset="100%" stop-color="#2a2e33"/>
    </linearGradient>
  </defs>
  <rect width="512" height="512" fill="#000"/>
  <g fill="url(#g)">
    <!-- gear crown -->
    <g>
      <rect x="150" y="70" width="30" height="40"/>
      <rect x="210" y="60" width="30" height="40"/>
      <rect x="272" y="60" width="30" height="40"/>
      <rect x="332" y="70" width="30" height="40"/>
    </g>
    <!-- skull/head shape -->
    <path d="M150 120
             H362
             C 388 120 404 140 404 168
             L 404 260
             C 404 320 372 366 322 388
             L 322 420 L 190 420 L 190 388
             C 140 366 108 320 108 260
             L 108 168
             C 108 140 124 120 150 120 Z"/>
  </g>
  <g fill="#000">
    <rect x="152" y="200" width="70" height="80" rx="10"/>
    <rect x="290" y="200" width="70" height="80" rx="10"/>
    <rect x="180" y="320" width="152" height="24" rx="6"/>
  </g>
  <g fill="#c8102e">
    <circle cx="187" cy="240" r="20"/>
  </g>
  <g fill="url(#g)">
    <rect x="196" y="330" width="18" height="16"/>
    <rect x="230" y="330" width="18" height="16"/>
    <rect x="264" y="330" width="18" height="16"/>
    <rect x="298" y="330" width="18" height="16"/>
  </g>
</svg>
