<svg xmlns="http://www.w3.org/2000/svg" viewBox="0 0 512 512">
  <defs>
    <linearGradient id="g" x1="0%" y1="0%" x2="100%" y2="100%">
      <stop offset="0%" stop-color="#ffb066"/>
      <stop offset="100%" stop-color="#4a0e00"/>
    </linearGradient>
  </defs>
  <rect width="512" height="512" fill="#000"/>
  <g fill="url(#g)">
    <!-- ember chunk -->
    <path d="M180 260
             C 140 300 140 360 190 400
             C 230 432 300 434 356 402
             C 410 372 424 310 396 262
             C 420 250 424 220 400 202
             C 412 172 392 138 356 132
             C 340 100 296 86 260 100
             C 224 80 178 96 164 132
             C 128 140 108 178 122 214
             C 100 232 100 262 130 274
             C 140 266 156 260 180 260 Z"/>
  </g>
  <g stroke="#000" stroke-width="10" fill="none" stroke-linecap="round">
    <path d="M210 180 L 250 240 L 220 300"/>
    <path d="M320 170 L 300 230 L 336 280"/>
    <path d="M240 320 L 280 350 L 260 390"/>
  </g>
  <g fill="url(#g)">
    <!-- smoke wisps -->
    <path d="M226 96 C 200 60 220 30 200 4 C 236 24 232 60 250 76 C 264 88 254 108 240 106 C 232 104 230 100 226 96 Z"/>
    <path d="M306 88 C 336 56 320 24 344 0 C 306 16 306 54 288 68 C 274 80 284 100 298 98 C 306 96 304 92 306 88 Z"/>
  </g>
</svg>
